<svg id="Layer_1" data-name="Layer 1" xmlns="http://www.w3.org/2000/svg" viewBox="0 0 375 375"><defs><style>.cls-1{fill:#fefefe;}.cls-2{fill:#fea300;}.cls-3{fill:#e6e6e6;}.cls-4{fill:#c7c7c7;}.cls-5{fill:#ededed;}.cls-6{fill:#a4a4a4;}.cls-7{fill:#dedede;}.cls-8{fill:#cacaca;}.cls-9{fill:#e2e2e2;}.cls-10{fill:#e5e5e5;}.cls-11{fill:#bdbdbd;}.cls-12{fill:#e4e4e4;}.cls-13{fill:#ececec;}.cls-14{fill:#b7b7b7;}.cls-15{fill:#bababa;}.cls-16{fill:#c1c1c1;}.cls-17{fill:#b6b6b6;}.cls-18{fill:#f6f6f6;}.cls-19{fill:#c3c3c3;}.cls-20{fill:#fbfbfb;}.cls-21{fill:silver;}.cls-22{fill:#c4c4c4;}.cls-23{fill:#acacac;}.cls-24{fill:#f7f7f7;}.cls-25{fill:#cecece;}.cls-26{fill:#fdfdfd;}.cls-27{fill:#d9d9d9;}.cls-28{fill:#d6d6d6;}.cls-29{fill:#989898;}.cls-30{fill:#adadad;}.cls-31{fill:#d5d5d5;}.cls-32{fill:#c5c5c5;}.cls-33{fill:#c8c8c8;}.cls-34{fill:#d7d7d7;}.cls-35{fill:#efefef;}.cls-36{fill:#e3e3e3;}.cls-37{fill:#828282;}.cls-38{fill:#e1e1e1;}.cls-39{fill:#f1f1f1;}.cls-40{fill:#d0d0d0;}.cls-41{fill:#c6c6c6;}.cls-42{fill:#fcfcfc;}.cls-43{fill:#010101;}.cls-44{fill:#e7e7e7;}.cls-45{fill:#f8f8f8;}.cls-46{fill:#050505;}.cls-47{fill:#dfdfdf;}.cls-48{fill:#eee;}.cls-49{fill:#e9e9e9;}.cls-50{fill:#eaeaea;}.cls-51{fill:#f0f0f0;}.cls-52{fill:#fafafa;}.cls-53{fill:#c2c2c2;}.cls-54{fill:#7c7c7c;}.cls-55{fill:#cdcdcd;}.cls-56{fill:#f2f2f2;}.cls-57{fill:#8b8b8b;}.cls-58{fill:#959595;}.cls-59{fill:#020202;}.cls-60{fill:#f9f9f9;}.cls-61{fill:#f3f3f3;}.cls-62{fill:#aeaeae;}</style></defs><path class="cls-1" d="M484.93,421.76q0,92,.07,184.07c0,2.56-.5,3.06-3.06,3.06q-184.44-.12-368.88,0c-2.56,0-3.06-.5-3.06-3.06q.12-184.44,0-368.88c0-2.56.5-3.06,3.06-3.06q184.44.12,368.87,0c2.57,0,3.07.5,3.07,3.06Q484.87,329.37,484.93,421.76ZM375.08,364.28c-.35-1.13-1.3-1-2.15-1-3.24,0-6.48,0-9.72,0-.57,0-1.36.31-1.69-.28s.41-1.08.81-1.49c2.27-2.31,4.49-4.68,6.89-6.84,1.56-1.4,1.25-2.28-.09-3.59s-2.08-1.34-3.31,0c-2.11,2.28-4.36,4.45-6.6,6.61-.57.55-1,1.7-2,1.29-.32-.14-.25-1.34-.26-2.05,0-2.87-.13-5.74,0-8.6.11-2-.8-2.22-2.44-2.23s-2.16.56-2.11,2.17c.09,3.11,0,6.23,0,9.34,0,.54.39,1.37-.39,1.6s-1-.56-1.43-1c-2.22-2.19-4.5-4.32-6.58-6.63-1.29-1.43-2.1-1.39-3.5-.05s-1.1,2.38.25,3.47a11.66,11.66,0,0,1,1.32,1.31c2,2.22,4.48,3.91,6,6.5-3,1-6.06.09-9.07.47-1.61.2-3.51-.91-4.79.95H193.67a87,87,0,0,0-10.81.54c-16.11,2-29.23,9.3-39.3,22-9.5,12-13.24,25.64-12,40.85,1.7,20.58,11.77,35.83,29.26,46.29,9.77,5.84,20.64,7.72,31.91,7.64a20.87,20.87,0,0,1-1.22,2.29c-.86,1.26-.82,2.22.57,3.08,2.95,1.82,5.85,3.71,8.78,5.55a1.94,1.94,0,0,0,3.1-.77c.3-.54.74-1,1-1.57.91-2.1,2.08-2.66,4.23-1.34s4.51,2,6.65,3.27,3,.5,4-1.45c1.47-3.11,2.67-6.37,4.65-9.24,1.37,0,2.74.07,4.11.07q88,0,176,0a71.49,71.49,0,0,0,11.89-1c36.47-6.15,57.95-44.89,44.05-79.4a58.62,58.62,0,0,0-54.43-36.82Z" transform="translate(-110 -233.89)"/><path d="M192.74,481.61c-11.27.08-22.14-1.8-31.91-7.64-17.49-10.46-27.56-25.71-29.26-46.29-1.25-15.21,2.49-28.86,12-40.85,10.07-12.72,23.19-20,39.3-22a87,87,0,0,1,10.81-.54H334.31c.29,3.73.29,3.73,3.92,3.74,2.72,0,5.45,0,8.17,0,.43,0,1-.27,1.28.36s-.23.91-.56,1.24l-8.64,8.64A36.67,36.67,0,0,1,328.39,382c-2.64.43-3.12,1.53-2.68,4,2.3,12.84,4.48,25.7,6.66,38.57,1.14,6.72.37,7.66-6.58,8.42-.86.09-1.74.05-2.61.15-3.22.36-5.18-1.27-6.33-4.08-.89-2.18-1.62-4.42-2.49-6.61-2.76-7-5.23-8.55-12.71-8.17a1.57,1.57,0,0,0-1.56.67l.09.29-.54-.12a1.13,1.13,0,0,0-1,.61l-.05.76-1.25.09a1.09,1.09,0,0,0-.93.69V418c-.57,0-.87.15-.74.77-.61-.1-.91.1-.74.76-.64-.16-.95,0-.75.73-.69-.19-.91.09-.75.75-.68-.17-.81.19-.75.75-.6-.12-.77.22-.8.72a1.21,1.21,0,0,0-.68,0,1.07,1.07,0,0,0-.72.89,1.78,1.78,0,0,0,.05.61.39.39,0,0,0-.17.62c-.58,0-.7.4-.76.85-.49,0-.67.31-.63.78a.42.42,0,0,0-.14.63,6.34,6.34,0,0,0-2.06,3.41c-.63,2.39-2.06,2.89-4.36,2.83-4.71-.14-9.44.07-14.17.09-1,0-2.33.46-2.8-.33s.75-1.67,1.25-2.48c6.22-10.23,1.59-21.07-10.19-23.79-8.14-1.88-15.43,1-22.71,4-1.24.51-1.17,1.41-.79,2.45a55.29,55.29,0,0,1,3,11.51c.32,2.28,1.44,1.76,2.74.94l1,1.41c.25.61.32,1.36,1.13,1.58l.37.7c-.06.44.23.65.55.84,0,.39.13.71.59.73l.36.69a.82.82,0,0,0,.5.89c-.17.16-.35.46-.53.47-8.53.34-17.09,1.2-25.47-1.22-2.28-.66-3-.12-3.16,2.29-.2,3.07-.94,6.1-1.42,9.16-.16,1-.72,2.18.72,2.89,2.29,1.13,4.17,3.05,6.79,3.55l-.11-.11c.25,1.26,1.52,1.34,2.31,2a2.16,2.16,0,0,0,1.55,1c.93.64.77,1.22-.21,1.5-11.09,3.2-22.33,4.7-33.78,2.33-4.72-1-7.59-4-8.08-8.93.06-1.72.13-3.43.19-5.15,1-1.66.62-3.63,1.23-5.38l.85-3.72a1.89,1.89,0,0,0,.17-.66c.49-.32.66-.81.2-1.18s-.91-.27-.9.48l-.16,1.38c-.92.74-.78,1.8-.85,2.79-1,1.71-1,3.63-1.27,5.5s-1,3.9-.74,5.94a42.08,42.08,0,0,0-.1,11.86c1.15,8.66,5.92,13.23,14.59,14,.86.08,1.72.12,2.58.18l0,.87Zm15.19-76.89c0,.49.37.68.8.76l-.63.62a8.56,8.56,0,0,0-3.26,1.3c-.77.08-1.58.09-2.1.83a2.68,2.68,0,0,0-2.14.81.75.75,0,0,0-.71.08c-1.3.24-2.65.38-3.6,1.48-.12,1.38.73.62,1.26.57a5.53,5.53,0,0,0,3.18-1.28.66.66,0,0,0,.61-.23l2.22-.75,2.26-.73c1.08-.35,2.27-.46,3.15-1.3l3.5-.87a1.48,1.48,0,0,0,1.6-.66l.75-.8A3.2,3.2,0,0,0,217,402.3l.23-.68a4,4,0,0,0,.07-4.62l-.31-.66a1.84,1.84,0,0,0-1.39-1.58c-1.63-1.41-3.38-2-5.38-.75a.63.63,0,0,0-.62.2,2,2,0,0,0-.65-.08l-.89.65,0,0-.72.69-.67,1.58-.22.68c-1.1,1.4-.65,2.94-.44,4.47a2.64,2.64,0,0,0,1.41,2.22A.38.38,0,0,0,207.93,404.72Zm12.78,8.84a1.23,1.23,0,0,0-.69-1.44c0-.31-.32-.55-.46-.37s-.09.65-.12,1,0,.72.47.82l.22.71c.37,2,1.05,3.9.32,5.92l-1.26,1.51a.72.72,0,0,0-.61.21l-3,0-.69-.24a13,13,0,0,1-2.34-3.6c-.22-1.11-.26-3.12-1.41-2.76-1.44.45.23,2,.21,3.07,0,.19.27.38.42.58a8.9,8.9,0,0,1-.42,4.34L211,424a2.71,2.71,0,0,0-1.43,1.3l-2.95.35-2-.95a.73.73,0,0,0-.33-.63l-.7-1.53c-.4-1.06-.41-2.29-1.34-3.12,0-.35-.17-.89-.52-.71-.7.34-.29,1-.12,1.49a6.9,6.9,0,0,0,1.22,3.24,1.26,1.26,0,0,0,.82,1.34,2.86,2.86,0,0,0,3,1.59c1.06.86,2,.18,3-.2A3,3,0,0,0,211.8,424l.35-.64c.49-1.51,1.4-1.75,2.68-.92l.68.29a3,3,0,0,0,3.79-.22,1.12,1.12,0,0,0,1-.68,2,2,0,0,0,1.06-1.59c.44-2.05.74-4.08-.58-6A.8.8,0,0,0,220.71,413.56Zm74.5-10.4,1.12-.19a5.42,5.42,0,0,0,3.24-1.24l1.23-.33c1.09-.32,2.29-.38,3.14-1.28a.71.71,0,0,0,.66-.22l2.2-.71c1.06-.32,2.34-.16,3-1.4.23-.65-.14-.67-.61-.59-1.12.28-2.3.39-3.15,1.3-.55.07-1.15,0-1.46.62l-1.38.31a5.68,5.68,0,0,0-3.22,1.26l-1.25.29c-1.06.39-2.31.31-3.15,1.26-.62.09-1.28.06-1.66.7l-1.2.21a6.7,6.7,0,0,0-3.33,1.21c-.47.17-1.48,0-1.07.84.51,1,1.36,0,2.07,0,1.07-.38,2.3-.36,3.14-1.29C294.12,403.79,294.81,403.82,295.21,403.16Z" transform="translate(-110 -233.89)"/><path d="M197.61,474.15l0-.87c1.15-.65,2.43-.39,3.65-.56,9-1.25,17.07-4.47,23.78-10.69,4.23-3.92,3.76-7.65-1.21-10.72a2.18,2.18,0,0,0-1.57-1c-.74-.34-1.29-1.11-2.23-1l.11.11c.73-1.94,2.1-.67,3.1-.5a37.76,37.76,0,0,0,8.49.64c6.47-.34,12.38-2.48,18.09-5.35,1.42-.71,2.66-1.56,4.39-.21,5.42,4.26,11.89,5.67,18.56,5.72,6.5.06,13.28.84,19-3.53,1.32-1,2.37-.14,3.45.29a42.18,42.18,0,0,0,13.39,3c1.89.13,3.11-.06,3.16-2.31,0-1.11.46-1.48,1.58-.61,6,4.7,12.61,3.25,19.17,1.54a4.73,4.73,0,0,0,3.38-3.22c2.06-6.38,4.58-12.62,5.72-19.26.06-1.24.16-2.47.16-3.7q0-18.67,0-37.35c0-1.34-.2-2.68,1-3.8,2.82-2.63,5.52-5.38,8.29-8.07.32-.31.67-1,1.18-.54.27.23.25.88.25,1.35,0,2.73,0,5.47,0,8.21,0,1.61-.66,3.48,2.34,3.42,2.8-.06,2.1-1.79,2.13-3.25,0-2.74,0-5.48,0-8.22,0-.57-.32-1.36.3-1.67s1,.47,1.43.86c2.4,2.35,4.85,4.66,7.12,7.13,1.41,1.54,2.07.34,2.91-.48s1.94-1.5.41-2.87c-2.31-2.08-4.44-4.36-6.62-6.59-.49-.5-1.44-.94-1.18-1.72s1.28-.38,1.94-.39c2.62-.07,5.23,0,7.85,0,3.67,0,3.67,0,3.92-3.73h31a58.62,58.62,0,0,1,54.43,36.82c13.9,34.51-7.58,73.25-44.05,79.4a71.49,71.49,0,0,1-11.89,1q-88-.06-176,0c-1.37,0-2.74,0-4.11-.07.32-1.5-.82-1.86-1.82-2.35-2.78-1.36-5.61-2.62-8.31-4.13-2.19-1.22-3.18-.63-4.12,1.59-1.5,3.53-1.59,3.35-5.11,1.32C202.68,476.48,200.77,474,197.61,474.15Zm160.21-42.61-.85.66a1.79,1.79,0,0,0-.09.57,5.25,5.25,0,0,1-1.8.43c-3-.34-2.62.91-1.55,2.87a36.14,36.14,0,0,1,4.05,11.16c.37,2.16,1.34,2.54,3.23,2.5,7-.16,13.93-.4,20.88-1.06,3.29-.32,5.56-1.43,6.67-4.73a63.76,63.76,0,0,1,3.07-7.18,8.33,8.33,0,0,0-.5-8.17,53.51,53.51,0,0,0-9-11.83c-1.82-1.79-1.82-2.93-.15-4.78,3.37-3.74,6.3-8,6.52-13.12.36-8.08.13-16.19.17-24.28,0-1.6-.5-1.61-1.72-.85a34.76,34.76,0,0,1-12.05,4.77c-2.25.41-2.5,1.38-2.12,3.55,1.52,8.7,3.17,17.38,4,26.18-.48.7.33,1.87-.84,2.32-6.16-6-12.33-11.93-19.29-17-1.44-1.05-2.1-1-2.32.91a37.73,37.73,0,0,1-2.6,10.06c-.86,2.06-.22,2.85,1.51,3.69a152.55,152.55,0,0,1,19.62,11.34c-.47,1.65-2.4,2.06-3,3.56a.44.44,0,0,0-.59.3,2.33,2.33,0,0,0-.53-.06,1,1,0,0,0-.94.75l.05,0-.84.69a1.16,1.16,0,0,0,0,.64c-.45,0-.79.2-.86.7a.45.45,0,0,0-.58.24,2,2,0,0,0-1.56,1.26c-.41.12-.79.26-.82.78a.49.49,0,0,0-.61.22,2.06,2.06,0,0,0-1.56,1.25c-.41.12-.79.26-.82.78l-1.13.22a1,1,0,0,0-1,.74ZM242.55,460.72c-.68,0-.93.42-.64.9.42.71,1,.54,1.45-.07.6-.18,1.31-.11,1.7-.78l1.14-.19a5.36,5.36,0,0,0,3.25-1.23l1.23-.33c1.08-.34,2.3-.34,3.15-1.27.55-.07,1.15,0,1.47-.6l1.38-.34,2.26-.73c1.07-.39,2.28-.41,3.12-1.32l1.27-.3a.57.57,0,0,0,.68-.6c0-.42-.24-.6-.67-.48a.44.44,0,0,0-.54,0c-.44-.14-.7.11-.92.45a1.37,1.37,0,0,0-.62.2,7.12,7.12,0,0,0-3.26,1.25,2.55,2.55,0,0,0-2.09.84.68.68,0,0,0-.68.21l-2.2.7a6,6,0,0,0-3.22,1.25l-1.25.29c-1.07.37-2.31.31-3.16,1.25-.61.09-1.28,0-1.66.7Zm171.6-58.63c0-9.71,0-19.42,0-29.13,0-2-.44-2.44-2.26-1.28a30.1,30.1,0,0,1-11,4.37c-2.65.45-3.26,1.69-2.72,4,.16.73.23,1.47.33,2.21,1.69,13.08,3.25,26.16,4.17,39.32.68,9.68,1.36,19.37,1.43,29.08,0,.51-.29,1.36.47,1.41.49,0,.38-.78.43-1.26.2-2.23.29-4.48.64-6.68.67-4.17,2-8.15,6.09-10.11,2.11-1,2.45-2.3,2.44-4.33C414.11,420.51,414.15,411.3,414.15,402.09Z" transform="translate(-110 -233.89)"/><path class="cls-2" d="M375.08,364.28c-.25,3.72-.25,3.73-3.92,3.73-2.62,0-5.23,0-7.85,0-.66,0-1.65-.5-1.94.39s.69,1.22,1.18,1.72c2.18,2.23,4.31,4.51,6.62,6.59,1.53,1.37.44,2-.41,2.87s-1.5,2-2.91.48c-2.27-2.47-4.72-4.78-7.12-7.13-.4-.39-.73-1.23-1.43-.86s-.3,1.1-.3,1.67c0,2.74,0,5.48,0,8.22,0,1.46.67,3.19-2.13,3.25-3,.06-2.31-1.81-2.34-3.42,0-2.74,0-5.48,0-8.21,0-.47,0-1.12-.25-1.35-.51-.43-.86.23-1.18.54-2.77,2.69-5.47,5.44-8.29,8.07-1.2,1.12-1,2.46-1,3.8q0,18.68,0,37.35c0,1.23-.1,2.46-.16,3.7,0-13.19-.16-26.38-.06-39.56,0-3.18-.41-5.88-3-7.89l8.64-8.64c.33-.33.79-.66.56-1.24s-.85-.35-1.28-.36c-2.72,0-5.45,0-8.17,0-3.63,0-3.63,0-3.92-3.74,1.28-1.86,3.18-.75,4.79-.95,3-.38,6.09.51,9.07-.47-1.55-2.59-4.07-4.28-6-6.5a11.66,11.66,0,0,0-1.32-1.31c-1.35-1.09-1.8-2-.25-3.47s2.21-1.38,3.5.05c2.08,2.31,4.36,4.44,6.58,6.63.42.4.77,1.16,1.43,1s.39-1.06.39-1.6c0-3.11.09-6.23,0-9.34-.05-1.61.47-2.18,2.11-2.17s2.55.27,2.44,2.23c-.16,2.86,0,5.73,0,8.6,0,.71-.06,1.91.26,2.05,1,.41,1.4-.74,2-1.29,2.24-2.16,4.49-4.33,6.6-6.61,1.23-1.34,2.05-1.25,3.31,0s1.65,2.19.09,3.59c-2.4,2.16-4.62,4.53-6.89,6.84-.4.41-1.2.8-.81,1.49s1.12.27,1.69.28c3.24,0,6.48,0,9.72,0C373.78,363.3,374.73,363.15,375.08,364.28Z" transform="translate(-110 -233.89)"/><path class="cls-2" d="M197.61,474.15c3.16-.11,5.07,2.33,7.48,3.71,3.52,2,3.61,2.21,5.11-1.32.94-2.22,1.93-2.81,4.12-1.59,2.7,1.51,5.53,2.77,8.31,4.13,1,.49,2.14.85,1.82,2.35-2,2.87-3.18,6.13-4.65,9.24-.92,1.95-1.91,2.63-4,1.45s-4.56-2-6.65-3.27-3.32-.76-4.23,1.34c-.24.56-.68,1-1,1.57a1.94,1.94,0,0,1-3.1.77c-2.93-1.84-5.83-3.73-8.78-5.55-1.39-.86-1.43-1.82-.57-3.08a20.87,20.87,0,0,0,1.22-2.29Z" transform="translate(-110 -233.89)"/><path class="cls-1" d="M338.48,378.27c2.64,2,3.07,4.71,3,7.89-.1,13.18,0,26.37.06,39.56-1.14,6.64-3.66,12.88-5.72,19.26a4.73,4.73,0,0,1-3.38,3.22c-6.56,1.71-13.14,3.16-19.17-1.54-1.12-.87-1.55-.5-1.58.61-.05,2.25-1.27,2.44-3.16,2.31a42.18,42.18,0,0,1-13.39-3c-1.08-.43-2.13-1.3-3.45-.29-5.72,4.37-12.5,3.59-19,3.53-6.67-.05-13.14-1.46-18.56-5.72-1.73-1.35-3-.5-4.39.21-5.71,2.87-11.62,5-18.09,5.35a37.76,37.76,0,0,1-8.49-.64c-1-.17-2.37-1.44-3.1.5-2.62-.5-4.5-2.42-6.79-3.55-1.44-.71-.88-1.85-.72-2.89.48-3.06,1.22-6.09,1.42-9.16.15-2.41.88-2.95,3.16-2.29,8.38,2.42,16.94,1.56,25.47,1.22.18,0,.36-.31.53-.47a.64.64,0,0,0-.5-.89l-.36-.69,1.06-.1c2.53,1.67,5.15,3.09,8.34,2a25.74,25.74,0,0,0,9.07-5.73c1.55-1.43.95-2-.52-2.95a18.53,18.53,0,0,0-20.91,1.52.67.67,0,0,0-.63,0c-1.3.82-2.42,1.34-2.74-.94a55.29,55.29,0,0,0-3-11.51c-.38-1-.45-1.94.79-2.45,7.28-3,14.57-5.87,22.71-4,11.78,2.72,16.41,13.56,10.19,23.79-.5.81-1.78,1.59-1.25,2.48s1.84.33,2.8.33c4.73,0,9.46-.23,14.17-.09,2.3.06,3.73-.44,4.36-2.83a6.34,6.34,0,0,1,2.06-3.41l.26.22a1.56,1.56,0,0,0,1,2.05A42,42,0,0,0,305.38,433c1.88.15,1.62-1,1.48-2.07-.48-3.68-.88-7.36-1.48-11-.68-4.12-1.16-4.43-5.27-4.19a1.29,1.29,0,0,0,.07-.51l-.09-.29a1.67,1.67,0,0,0,1.56-.67c7.48-.38,10,1.19,12.71,8.17.87,2.19,1.6,4.43,2.49,6.61,1.15,2.81,3.11,4.44,6.33,4.08.87-.1,1.75-.06,2.61-.15,6.95-.76,7.72-1.7,6.58-8.42-2.18-12.87-4.36-25.73-6.66-38.57-.44-2.47,0-3.57,2.68-4A36.67,36.67,0,0,0,338.48,378.27ZM218.22,447.43l-.15.2.24,0Z" transform="translate(-110 -233.89)"/><path class="cls-1" d="M223.8,451.31c5,3.07,5.44,6.8,1.21,10.72-6.71,6.22-14.81,9.44-23.78,10.69-1.22.17-2.5-.09-3.65.56-.86-.06-1.72-.1-2.58-.18-8.67-.8-13.44-5.37-14.59-14a42.08,42.08,0,0,1,.1-11.86h1.28c.49,5,3.36,8,8.08,8.93,11.45,2.37,22.69.87,33.78-2.33,1-.28,1.14-.86.21-1.5Z" transform="translate(-110 -233.89)"/><path class="cls-3" d="M214.83,422.44c-1.28-.83-2.19-.59-2.68.92l-.83-.09a8.9,8.9,0,0,0,.42-4.34l.78-.89a13,13,0,0,0,2.34,3.6Z" transform="translate(-110 -233.89)"/><path class="cls-4" d="M210.23,394c2-1.23,3.75-.66,5.38.75l-.17.32a.49.49,0,0,0-.56.31,10.47,10.47,0,0,0-3.83-.69Z" transform="translate(-110 -233.89)"/><path class="cls-5" d="M181.79,447.21h-1.28c-.24-2,.55-3.95.74-5.94l.73.79C181.92,443.78,181.85,445.49,181.79,447.21Z" transform="translate(-110 -233.89)"/><path class="cls-6" d="M182,442.06l-.73-.79c.25-1.87.3-3.79,1.27-5.5l.69.91C182.6,438.43,183,440.4,182,442.06Z" transform="translate(-110 -233.89)"/><path class="cls-7" d="M220.45,420.19c.73-2,.05-4-.32-5.92h.69c1.32,1.88,1,3.91.58,6Z" transform="translate(-110 -233.89)"/><path class="cls-8" d="M212.52,418l-.78.89c-.15-.2-.42-.39-.42-.58,0-1.09-1.65-2.62-.21-3.07C212.26,414.92,212.3,416.93,212.52,418Z" transform="translate(-110 -233.89)"/><path class="cls-9" d="M219.3,422.51a3,3,0,0,1-3.79.22l0-.85,3,0Z" transform="translate(-110 -233.89)"/><path class="cls-10" d="M212.47,406l-3.5.87-.87-.78.63-.62.12-.23a3.64,3.64,0,0,0,.74.05l3-.58a2.91,2.91,0,0,1,0,.66A1,1,0,0,1,212.47,406Z" transform="translate(-110 -233.89)"/><path class="cls-11" d="M200.73,409.89a5.53,5.53,0,0,1-3.18,1.28c-.22-.61-.8-.47-1.26-.57,1-1.1,2.3-1.24,3.6-1.48Z" transform="translate(-110 -233.89)"/><path class="cls-12" d="M206.65,397.08l.67-1.58a.79.79,0,0,0,.72-.69l0,0a1,1,0,0,0,.89-.65,2,2,0,0,1,.65.08l.71.61-2.73,2.32Z" transform="translate(-110 -233.89)"/><path class="cls-13" d="M217.31,397a4,4,0,0,1-.07,4.62l-.77,0a7.42,7.42,0,0,0,0-4.52Z" transform="translate(-110 -233.89)"/><path class="cls-14" d="M299.57,401.73a5.42,5.42,0,0,1-3.24,1.24l-.79-.73c.84-.95,2.09-.87,3.15-1.26Z" transform="translate(-110 -233.89)"/><path class="cls-15" d="M289.35,404.36a6.7,6.7,0,0,1,3.33-1.21l.81.73c-.84.93-2.07.91-3.14,1.29Z" transform="translate(-110 -233.89)"/><path class="cls-16" d="M202.77,423.42a6.9,6.9,0,0,1-1.22-3.24l.64-.78c.93.83.94,2.06,1.34,3.12Z" transform="translate(-110 -233.89)"/><path class="cls-17" d="M183.21,436.68l-.69-.91c.07-1-.07-2,.85-2.79l.69,0Z" transform="translate(-110 -233.89)"/><path class="cls-18" d="M206.59,425.63l2.95-.35,0,.87c-1,.38-1.94,1.06-3,.2Z" transform="translate(-110 -233.89)"/><path class="cls-19" d="M306,398.5c.85-.91,2-1,3.15-1.3l.61.59c-.62,1.24-1.9,1.08-3,1.4Z" transform="translate(-110 -233.89)"/><path class="cls-20" d="M206,402.23c-.21-1.53-.66-3.07.44-4.47l.75.06c-.17,1-.34,1.94-.52,2.91Z" transform="translate(-110 -233.89)"/><path class="cls-21" d="M299.94,400.69a5.68,5.68,0,0,1,3.22-1.26l.78.69c-.85.9-2.05,1-3.14,1.28Z" transform="translate(-110 -233.89)"/><path class="cls-22" d="M208.1,406.1l.87.78c-.88.84-2.07.95-3.15,1.3l-1-.78A8.56,8.56,0,0,1,208.1,406.1Z" transform="translate(-110 -233.89)"/><path class="cls-23" d="M206,402.23l.67-1.5,1.34,3.12-.6.6A2.64,2.64,0,0,1,206,402.23Z" transform="translate(-110 -233.89)"/><path class="cls-24" d="M206.59,425.63l0,.72a2.86,2.86,0,0,1-3-1.59l.22.07.21-.11.54,0Z" transform="translate(-110 -233.89)"/><path class="cls-25" d="M209.56,426.15l0-.87A2.71,2.71,0,0,1,211,424l.83,0A3,3,0,0,1,209.56,426.15Z" transform="translate(-110 -233.89)"/><path class="cls-26" d="M200.6,409a2.68,2.68,0,0,1,2.14-.81l.82.68-2.22.75Z" transform="translate(-110 -233.89)"/><path class="cls-27" d="M217,402.3a3.2,3.2,0,0,1-2.19,2.25l-.28-.22a1.57,1.57,0,0,0,.25-.63,2.63,2.63,0,0,1,1.37-1.43Z" transform="translate(-110 -233.89)"/><path class="cls-28" d="M203.56,408.91l-.82-.68c.52-.74,1.33-.75,2.1-.83l1,.78Z" transform="translate(-110 -233.89)"/><path class="cls-29" d="M240.81,428.51c-.81-.22-.88-1-1.13-1.58l.81.05c.75.26,1,.9,1.18,1.57Z" transform="translate(-110 -233.89)"/><path class="cls-1" d="M220,449.39c.94-.15,1.49.62,2.23,1l.08,1C221.52,450.73,220.25,450.65,220,449.39Z" transform="translate(-110 -233.89)"/><path class="cls-30" d="M222.31,451.35l-.08-1a2.18,2.18,0,0,1,1.57,1l.06,1A2.16,2.16,0,0,1,222.31,451.35Z" transform="translate(-110 -233.89)"/><path class="cls-31" d="M289.35,404.36l1,.81c-.71.06-1.56,1.07-2.07,0C287.87,404.38,288.88,404.53,289.35,404.36Z" transform="translate(-110 -233.89)"/><path class="cls-32" d="M220.45,420.19l1,.05a2,2,0,0,1-1.06,1.59l-1.15-.13Z" transform="translate(-110 -233.89)"/><path class="cls-20" d="M306,398.5l.8.69-2.2.71-.06-.78C304.85,398.51,305.45,398.57,306,398.5Z" transform="translate(-110 -233.89)"/><path class="cls-33" d="M202.77,423.42l.76-.9.7,1.53c-.27.16-.47.34-.21.67l-.21.11-.22-.07A1.26,1.26,0,0,1,202.77,423.42Z" transform="translate(-110 -233.89)"/><path class="cls-34" d="M291.17,422.52a1.21,1.21,0,0,1,.68,0l.3,0h.29a2.21,2.21,0,0,1-1.3,1.52,4.53,4.53,0,0,1-.64,0,1.78,1.78,0,0,1-.05-.61A1,1,0,0,0,291.17,422.52Z" transform="translate(-110 -233.89)"/><path class="cls-35" d="M299.94,400.69l.86.71-1.23.33-.88-.75Z" transform="translate(-110 -233.89)"/><path class="cls-36" d="M214.82,404.55l-.75.8-.75-.12v-.68a.72.72,0,0,1,.79-.54.53.53,0,0,0,.43.32Z" transform="translate(-110 -233.89)"/><path class="cls-37" d="M183.53,431.6c0-.75.45-.85.9-.48s.29.86-.2,1.18Z" transform="translate(-110 -233.89)"/><path class="cls-34" d="M215.61,394.76a1.84,1.84,0,0,1,1.39,1.58l-.91,0c-.44,0-.57-.26-.57-.64,0-.22-.06-.44-.08-.66Z" transform="translate(-110 -233.89)"/><path class="cls-1" d="M202.19,419.4l-.64.78c-.17-.52-.58-1.15.12-1.49C202,418.51,202.15,419.05,202.19,419.4Z" transform="translate(-110 -233.89)"/><path class="cls-7" d="M297.31,416.59l1.25-.09.07,0c-.06.95-.88,1-1.51,1.33,0-.18,0-.36,0-.54Z" transform="translate(-110 -233.89)"/><path class="cls-38" d="M240.49,427l-.81-.05-1-1.41a.67.67,0,0,1,.63,0C240.12,425.71,240.24,426.39,240.49,427Z" transform="translate(-110 -233.89)"/><path class="cls-26" d="M295.54,402.24l.79.73-1.12.19-1.33-.22C294.26,402.3,294.92,402.33,295.54,402.24Z" transform="translate(-110 -233.89)"/><path class="cls-26" d="M293.88,402.94l1.33.22c-.4.66-1.09.63-1.72.72l-.81-.73Z" transform="translate(-110 -233.89)"/><path class="cls-39" d="M300.18,415.25a1.29,1.29,0,0,1-.07.51c-.18.85-.82.83-1.48.78l-.07,0,.05-.76a1,1,0,0,0,1-.61Z" transform="translate(-110 -233.89)"/><path class="cls-40" d="M243.38,430.68l-1.06.1c-.46,0-.57-.34-.59-.73l0-.82.19-.06A2.45,2.45,0,0,1,243.38,430.68Z" transform="translate(-110 -233.89)"/><path class="cls-41" d="M220,412.12a1.23,1.23,0,0,1,.69,1.44h-.8c-.46-.1-.55-.41-.47-.82Z" transform="translate(-110 -233.89)"/><path class="cls-20" d="M210.32,394.82l-.71-.61a.63.63,0,0,1,.62-.2l.82.69Z" transform="translate(-110 -233.89)"/><path class="cls-42" d="M304.54,399.12l.06.78a.71.71,0,0,1-.66.22l-.78-.69Z" transform="translate(-110 -233.89)"/><path class="cls-11" d="M288.94,426.27c0-.47.14-.74.63-.78l.35-.06.36,0a.68.68,0,0,1-.6.79Z" transform="translate(-110 -233.89)"/><path class="cls-26" d="M183.53,431.6l.7.7a1.89,1.89,0,0,1-.17.66l-.69,0Z" transform="translate(-110 -233.89)"/><path class="cls-43" d="M301.65,414.29a1.67,1.67,0,0,1-1.56.67A1.57,1.57,0,0,1,301.65,414.29Z" transform="translate(-110 -233.89)"/><path class="cls-44" d="M219.19,421.7l1.15.13a1.12,1.12,0,0,1-1,.68l-.72-.6A.72.72,0,0,1,219.19,421.7Z" transform="translate(-110 -233.89)"/><path class="cls-45" d="M220,412.12l-.58.62c0-.34-.05-.76.12-1S220,411.81,220,412.12Z" transform="translate(-110 -233.89)"/><path class="cls-42" d="M196.29,410.6c.46.1,1,0,1.26.57C197,411.22,196.17,412,196.29,410.6Z" transform="translate(-110 -233.89)"/><path class="cls-1" d="M200.6,409l.74.62a.66.66,0,0,1-.61.23l-.84-.77A.75.75,0,0,1,200.6,409Z" transform="translate(-110 -233.89)"/><path class="cls-46" d="M213.32,405.23l.75.12a1.48,1.48,0,0,1-1.6.66,1,1,0,0,0,.13-.63Z" transform="translate(-110 -233.89)"/><path class="cls-12" d="M290.5,424a4.53,4.53,0,0,0,.64,0c0,.46-.13.83-.7.78l-.11-.15A.39.39,0,0,1,290.5,424Z" transform="translate(-110 -233.89)"/><path class="cls-47" d="M297.14,417.33c0,.18,0,.36,0,.54a.51.51,0,0,1-.76.14h0v-.74Z" transform="translate(-110 -233.89)"/><path class="cls-43" d="M297.14,417.33l-.76-.05a1.09,1.09,0,0,1,.93-.69Z" transform="translate(-110 -233.89)"/><path class="cls-5" d="M288.94,426.27h.74c0,.41-.08.81-.62.86l-.26-.22A.42.42,0,0,1,288.94,426.27Z" transform="translate(-110 -233.89)"/><path class="cls-48" d="M292.65,421.78c-.06-.56.07-.92.75-.75l0,0c.06.58-.1.93-.78.72Z" transform="translate(-110 -233.89)"/><path class="cls-35" d="M290.28,425.47l-.36,0-.35.06c.06-.45.18-.85.76-.85l.11.15Z" transform="translate(-110 -233.89)"/><path class="cls-26" d="M215.55,421.88l0,.85-.68-.29,0-.8Z" transform="translate(-110 -233.89)"/><path class="cls-18" d="M240.81,428.51l.86,0a.83.83,0,0,1,.22.62l-.19.06a.72.72,0,0,0-.52,0Z" transform="translate(-110 -233.89)"/><path class="cls-46" d="M208,394.81a.79.79,0,0,1-.72.69Z" transform="translate(-110 -233.89)"/><path class="cls-33" d="M241.18,429.21a.72.72,0,0,1,.52,0l0,.82C241.41,429.86,241.12,429.65,241.18,429.21Z" transform="translate(-110 -233.89)"/><path class="cls-43" d="M299.64,415.13a1,1,0,0,1-1,.61A1.13,1.13,0,0,1,299.64,415.13Z" transform="translate(-110 -233.89)"/><path class="cls-1" d="M216.09,396.38l.91,0,.31.66-.84.06Z" transform="translate(-110 -233.89)"/><path class="cls-40" d="M242.68,431.47a.64.64,0,0,1,.5.89A.82.82,0,0,1,242.68,431.47Z" transform="translate(-110 -233.89)"/><path class="cls-1" d="M207.18,397.82l-.75-.06.22-.68.94.06Z" transform="translate(-110 -233.89)"/><path class="cls-1" d="M219.91,413.56h.8a.8.8,0,0,1,.11.72h-.69Z" transform="translate(-110 -233.89)"/><path class="cls-24" d="M309.76,397.79l-.61-.59C309.62,397.12,310,397.14,309.76,397.79Z" transform="translate(-110 -233.89)"/><path class="cls-13" d="M294.9,419.55c-.17-.66.13-.86.74-.76l-.05-.06c.16.66-.17.83-.75.75Z" transform="translate(-110 -233.89)"/><path class="cls-46" d="M209,394.13a1,1,0,0,1-.89.65Z" transform="translate(-110 -233.89)"/><path class="cls-1" d="M217,402.3l-.85,0,.31-.69.77,0Z" transform="translate(-110 -233.89)"/><path class="cls-39" d="M295.64,418.79c-.13-.62.17-.81.74-.77h0c.17.7-.17.85-.77.72Z" transform="translate(-110 -233.89)"/><path class="cls-26" d="M207.4,404.45l.6-.6a.45.45,0,0,1,.21.59,1.07,1.07,0,0,0-.28.28A.38.38,0,0,1,207.4,404.45Z" transform="translate(-110 -233.89)"/><path class="cls-45" d="M208.73,405.48c-.43-.08-.76-.27-.8-.76a1.07,1.07,0,0,1,.28-.28.44.44,0,0,1,.6.3.82.82,0,0,0,0,.51Z" transform="translate(-110 -233.89)"/><path class="cls-49" d="M292.44,422.49h-.29l-.3,0c0-.5.2-.84.8-.72l-.06-.06c0,.1.12.21.1.29A2.44,2.44,0,0,1,292.44,422.49Z" transform="translate(-110 -233.89)"/><path class="cls-43" d="M291.17,422.52a1,1,0,0,1-.72.89A1.07,1.07,0,0,1,291.17,422.52Z" transform="translate(-110 -233.89)"/><path class="cls-50" d="M294.15,420.28c-.2-.7.11-.89.75-.73l-.06-.07c.11.59-.14.84-.73.77Z" transform="translate(-110 -233.89)"/><path class="cls-51" d="M211.8,424l-.83,0,.35-.71.83.09Z" transform="translate(-110 -233.89)"/><path class="cls-26" d="M204,424.72c-.26-.33-.06-.51.21-.67a.73.73,0,0,1,.33.63Z" transform="translate(-110 -233.89)"/><path class="cls-51" d="M293.4,421c-.16-.66.06-.94.75-.75l0,0c.08.57-.14.85-.74.75Z" transform="translate(-110 -233.89)"/><path class="cls-1" d="M372.6,419.55A152.55,152.55,0,0,0,353,408.21c-1.73-.84-2.37-1.63-1.51-3.69a37.73,37.73,0,0,0,2.6-10.06c.22-1.9.88-2,2.32-.91,7,5.07,13.13,11,19.29,17,.72,1.11,1.26,1.08,1.41-.29a2.62,2.62,0,0,0-.57-2c-.8-8.8-2.45-17.48-4-26.18-.38-2.17-.13-3.14,2.12-3.55a34.76,34.76,0,0,0,12.05-4.77c1.22-.76,1.73-.75,1.72.85,0,8.09.19,16.2-.17,24.28-.22,5.15-3.15,9.38-6.52,13.12-1.67,1.85-1.67,3,.15,4.78a53.51,53.51,0,0,1,9,11.83,8.33,8.33,0,0,1,.5,8.17,63.76,63.76,0,0,0-3.07,7.18c-1.11,3.3-3.38,4.41-6.67,4.73-6.95.66-13.91.9-20.88,1.06-1.89,0-2.86-.34-3.23-2.5a36.14,36.14,0,0,0-4.05-11.16c-1.07-2-1.47-3.21,1.55-2.87a5.25,5.25,0,0,0,1.8-.43c3.47,1.75,7,1.19,10.58.35,5.18-.44,10.38-.59,15.51-1.55.64-.12,1.6.3,1.88-.6.21-.66-.54-1.05-1-1.46-3.3-3.16-6.5-6.44-10.35-9A1.41,1.41,0,0,0,372.6,419.55Z" transform="translate(-110 -233.89)"/><path class="cls-1" d="M414.15,402.09c0,9.21,0,18.42,0,27.63,0,2-.33,3.33-2.44,4.33-4.1,2-5.42,5.94-6.09,10.11-.35,2.2-.44,4.45-.64,6.68,0,.48.06,1.29-.43,1.26-.76-.05-.47-.9-.47-1.41-.07-9.71-.75-19.4-1.43-29.08-.92-13.16-2.48-26.24-4.17-39.32-.1-.74-.17-1.48-.33-2.21-.54-2.34.07-3.58,2.72-4a30.1,30.1,0,0,0,11-4.37c1.82-1.16,2.27-.75,2.26,1.28C414.12,382.67,414.15,392.38,414.15,402.09Z" transform="translate(-110 -233.89)"/><path class="cls-52" d="M367.46,433.12c-3.56.84-7.11,1.4-10.58-.35a1.79,1.79,0,0,1,.09-.57.82.82,0,0,0,.85-.66l-.05,0a1,1,0,0,0,1-.74l1.13-.22a1,1,0,0,0,.29.32c-.23.83-1.7.94-1.4,1.85s1.3.34,2,.35C363,433.17,365.22,433.13,367.46,433.12Z" transform="translate(-110 -233.89)"/><path class="cls-52" d="M372.6,419.55a1.41,1.41,0,0,1,.93,1c-1.19,1-2.2,2.27-3.72,2.85l-.25-.27C370.2,421.61,372.13,421.2,372.6,419.55Z" transform="translate(-110 -233.89)"/><path class="cls-15" d="M249.45,459.35a5.36,5.36,0,0,1-3.25,1.23l-.8-.73c.85-.94,2.09-.88,3.16-1.25Z" transform="translate(-110 -233.89)"/><path class="cls-53" d="M249.81,458.31a6,6,0,0,1,3.22-1.25l.8.69c-.85.93-2.07.93-3.15,1.27Z" transform="translate(-110 -233.89)"/><path class="cls-21" d="M258,455.31a7.12,7.12,0,0,1,3.26-1.25l.8.7c-.84.91-2.05.93-3.12,1.32Z" transform="translate(-110 -233.89)"/><path class="cls-54" d="M376.52,408.23a2.62,2.62,0,0,1,.57,2c-.15,1.37-.69,1.4-1.41.29C376.85,410.1,376,408.93,376.52,408.23Z" transform="translate(-110 -233.89)"/><path class="cls-55" d="M258,455.31l.94.77-2.26.73-.77-.66A2.55,2.55,0,0,1,258,455.31Z" transform="translate(-110 -233.89)"/><path class="cls-16" d="M360.69,429.84a2.06,2.06,0,0,1,1.56-1.25v.88a2,2,0,0,1-1.55,1.23Z" transform="translate(-110 -233.89)"/><path class="cls-42" d="M262.06,454.76l-.8-.7a1.37,1.37,0,0,1,.62-.2c.45.14.79.05.92-.45a.44.44,0,0,1,.54,0v1.08Z" transform="translate(-110 -233.89)"/><path class="cls-20" d="M253.83,457.75l-.8-.69,2.2-.7.07.79C255,457.74,254.38,457.68,253.83,457.75Z" transform="translate(-110 -233.89)"/><path class="cls-22" d="M363.68,427.59a2,2,0,0,1,1.56-1.26v.89a2,2,0,0,1-1.55,1.23Z" transform="translate(-110 -233.89)"/><path class="cls-10" d="M366.68,425.39a1.16,1.16,0,0,1,0-.64l.34,0h.35l.86,0a2.37,2.37,0,0,1-1.57,1.32A2.41,2.41,0,0,1,366.68,425.39Z" transform="translate(-110 -233.89)"/><path class="cls-10" d="M368.26,424.78l-.86,0c0-.23.09-.46.15-.68l-.05,0a1.06,1.06,0,0,0,.94-.75,2.33,2.33,0,0,1,.53.06,2.12,2.12,0,0,1,0,.71C369,424.6,368.69,424.77,368.26,424.78Z" transform="translate(-110 -233.89)"/><path class="cls-56" d="M249.81,458.31l.87.71-1.23.33-.89-.75Z" transform="translate(-110 -233.89)"/><path class="cls-1" d="M245.4,459.85l.8.73-1.14.19-1.32-.22C244.12,459.9,244.79,459.94,245.4,459.85Z" transform="translate(-110 -233.89)"/><path class="cls-57" d="M243.36,461.55c-.46.61-1,.78-1.45.07-.29-.48,0-.93.64-.9C242.56,461.25,243,461.36,243.36,461.55Z" transform="translate(-110 -233.89)"/><path class="cls-1" d="M243.36,461.55c-.36-.19-.8-.3-.81-.83l1.19-.17,1.32.22C244.67,461.44,244,461.37,243.36,461.55Z" transform="translate(-110 -233.89)"/><path class="cls-58" d="M263.33,454.46v-1.08c.43-.12.69.06.67.48A.57.57,0,0,1,263.33,454.46Z" transform="translate(-110 -233.89)"/><path class="cls-42" d="M255.3,457.15l-.07-.79a.68.68,0,0,1,.68-.21l.77.66Z" transform="translate(-110 -233.89)"/><path class="cls-59" d="M367.55,424.06c-.06.22-.11.45-.15.68h-.35l-.34,0Z" transform="translate(-110 -233.89)"/><path class="cls-60" d="M366.68,425.39a2.41,2.41,0,0,0,0,.71.44.44,0,0,1-.59.3c-.1-.1-.19-.21-.28-.31C365.89,425.59,366.23,425.43,366.68,425.39Z" transform="translate(-110 -233.89)"/><path class="cls-61" d="M363.68,427.59l0,.86a.41.41,0,0,1-.55.23,1,1,0,0,1-.29-.31C362.89,427.85,363.27,427.71,363.68,427.59Z" transform="translate(-110 -233.89)"/><path class="cls-52" d="M362.26,429.47v-.88a.49.49,0,0,1,.61-.22,1,1,0,0,0,.29.31C363.05,429.17,362.66,429.32,362.26,429.47Z" transform="translate(-110 -233.89)"/><path class="cls-56" d="M360.69,429.84l0,.86a.42.42,0,0,1-.55.24,1,1,0,0,1-.29-.32C359.9,430.1,360.28,430,360.69,429.84Z" transform="translate(-110 -233.89)"/><path class="cls-60" d="M365.25,427.22v-.89a.45.45,0,0,1,.58-.24c.09.1.18.21.28.31C366.05,426.91,365.66,427.07,365.25,427.22Z" transform="translate(-110 -233.89)"/><path class="cls-59" d="M358.74,430.84a1,1,0,0,1-1,.74A1,1,0,0,1,358.74,430.84Z" transform="translate(-110 -233.89)"/><path class="cls-59" d="M357.82,431.54a.82.82,0,0,1-.85.66Z" transform="translate(-110 -233.89)"/><path class="cls-58" d="M262.8,453.41c-.13.5-.47.59-.92.45C262.1,453.52,262.36,453.27,262.8,453.41Z" transform="translate(-110 -233.89)"/><path class="cls-59" d="M368.44,423.35a1.06,1.06,0,0,1-.94.75A1,1,0,0,1,368.44,423.35Z" transform="translate(-110 -233.89)"/><path class="cls-45" d="M369,424.12a2.12,2.12,0,0,0,0-.71.44.44,0,0,1,.59-.3l.25.27C369.79,423.9,369.44,424.07,369,424.12Z" transform="translate(-110 -233.89)"/><path class="cls-43" d="M293.37,421c.6.1.82-.18.74-.75.59.07.84-.18.73-.77.58.08.91-.09.75-.75.6.13.94,0,.77-.72a.51.51,0,0,0,.76-.14c.63-.3,1.45-.38,1.51-1.33.66,0,1.3.07,1.48-.78,4.11-.24,4.59.07,5.27,4.19.6,3.65,1,7.33,1.48,11,.14,1.11.4,2.22-1.48,2.07a42,42,0,0,1-15.33-3.86,1.56,1.56,0,0,1-1-2.05c.54-.05.58-.45.62-.86a.68.68,0,0,0,.6-.79l.16-.68c.57,0,.69-.32.7-.78a2.21,2.21,0,0,0,1.3-1.52,2.44,2.44,0,0,0,.25-.48c0-.08-.06-.19-.1-.29C293.27,421.93,293.43,421.58,293.37,421Z" transform="translate(-110 -233.89)"/><path class="cls-43" d="M241.89,429.17a.83.83,0,0,0-.22-.62c-.2-.67-.43-1.31-1.18-1.57-.25-.59-.37-1.27-1.13-1.45A18.53,18.53,0,0,1,260.27,424c1.47.91,2.07,1.52.52,2.95a25.74,25.74,0,0,1-9.07,5.73c-3.19,1.08-5.81-.34-8.34-2A2.45,2.45,0,0,0,241.89,429.17Z" transform="translate(-110 -233.89)"/><polygon class="cls-62" points="108.22 213.54 108.31 213.77 108.07 213.74 108.22 213.54"/><path class="cls-46" d="M208.81,404.74a.44.44,0,0,0-.6-.3.45.45,0,0,0-.21-.59l-1.34-3.12c.18-1,.35-1.94.52-2.91l.41-.68,2.73-2.32.73-.12a10.47,10.47,0,0,1,3.83.69,1.1,1.1,0,0,0,.64.35c0,.38.13.65.57.64l.38.68a7.42,7.42,0,0,1,0,4.52l-.31.69a2.63,2.63,0,0,0-1.37,1.43l-.68.31a.72.72,0,0,0-.79.54l-.73.17-3,.58Z" transform="translate(-110 -233.89)"/><path class="cls-24" d="M215.52,395.74a1.1,1.1,0,0,1-.64-.35.49.49,0,0,1,.56-.31C215.46,395.3,215.48,395.52,215.52,395.74Z" transform="translate(-110 -233.89)"/><path class="cls-52" d="M212.59,404.72l.73-.17v.68l-.72.15A2.91,2.91,0,0,0,212.59,404.72Z" transform="translate(-110 -233.89)"/><path class="cls-47" d="M208.81,404.74l.78.56a3.64,3.64,0,0,1-.74-.05A.82.82,0,0,1,208.81,404.74Z" transform="translate(-110 -233.89)"/><path class="cls-45" d="M214.11,404l.68-.31a1.57,1.57,0,0,1-.25.63A.53.53,0,0,1,214.11,404Z" transform="translate(-110 -233.89)"/><path class="cls-59" d="M369,424.12c.45-.05.8-.22.82-.74,1.52-.58,2.53-1.84,3.72-2.85,3.85,2.54,7.05,5.82,10.35,9,.43.41,1.18.8,1,1.46-.28.9-1.24.48-1.88.6-5.13,1-10.33,1.11-15.51,1.55-2.24,0-4.47.05-6.71,0-.69,0-1.73.43-2-.35s1.17-1,1.4-1.85a.42.42,0,0,0,.55-.24,2,2,0,0,0,1.55-1.23c.4-.15.79-.3.89-.79a.41.41,0,0,0,.55-.23,2,2,0,0,0,1.55-1.23c.41-.15.8-.31.85-.82a.44.44,0,0,0,.59-.3,2.37,2.37,0,0,0,1.57-1.32C368.69,424.77,369,424.6,369,424.12Z" transform="translate(-110 -233.89)"/></svg>